<svg width="36" height="35" viewBox="0 0 36 35" fill="none" xmlns="http://www.w3.org/2000/svg">
<path d="M32.1599 16.1147L18.3749 29.5168C16.6862 31.1586 14.3957 32.081 12.0074 32.081C9.61917 32.081 7.32871 31.1586 5.63995 29.5168C3.95118 27.8749 3.00244 25.6481 3.00244 23.3261C3.00244 21.0042 3.95118 18.7774 5.63995 17.1355L19.4249 3.73342C20.5508 2.63885 22.0778 2.02393 23.6699 2.02393C25.2621 2.02393 26.7891 2.63885 27.9149 3.73342C29.0408 4.82799 29.6733 6.31255 29.6733 7.8605C29.6733 9.40846 29.0408 10.893 27.9149 11.9876L14.1149 25.3897C13.552 25.937 12.7885 26.2444 11.9924 26.2444C11.1964 26.2444 10.4329 25.937 9.86995 25.3897C9.30702 24.8424 8.99078 24.1001 8.99078 23.3261C8.99078 22.5522 9.30702 21.8099 9.86995 21.2626L22.6049 8.89592" stroke="#303030" stroke-width="4" stroke-linecap="round" stroke-linejoin="round"/>
</svg>
